<svg width="40" height="40" viewBox="0 0 40 40" fill="none" xmlns="http://www.w3.org/2000/svg">
<g clip-path="url(#clip0_613_95)">
<path d="M20 36.8762C10.6721 36.8762 3.12383 29.3279 3.12383 20C3.12383 10.6721 10.6721 3.12383 20 3.12383C29.3279 3.12383 36.8762 10.6721 36.8762 20C36.8762 29.3279 29.3279 36.8762 20 36.8762ZM20 0C8.94835 0 0 8.94835 0 20C0 31.0516 8.94835 40 20 40C31.0516 40 40 31.0516 40 20C40 8.94835 31.0516 0 20 0Z" fill="white"/>
<path d="M20 16.7454C19.1351 16.7454 18.4381 17.4423 18.4381 18.3073V28.3695C18.4381 29.2345 19.1351 29.9314 20 29.9314C20.865 29.9314 21.5619 29.2345 21.5619 28.3695V18.3073C21.5619 17.4423 20.865 16.7454 20 16.7454Z" fill="white"/>
<path d="M19.9999 10.6099C21.1636 10.6099 22.1094 11.5557 22.1094 12.7194C22.1094 13.883 21.1636 14.8289 19.9999 14.8289C18.8362 14.8289 17.8904 13.883 17.8904 12.7194C17.8904 11.5557 18.8362 10.6099 19.9999 10.6099Z" fill="white"/>
</g>
<defs>
<clipPath id="clip0_613_95">
<rect width="40" height="40" fill="white"/>
</clipPath>
</defs>
</svg>
